Coordinates
version=1
nRows=32
nColumns=12
inDegrees=yes

Units are S.I. units (second, meters, Newtons, ...)
Angles are in degrees

endheader
time	SC_y	SC_z	SC_x	AC_y	AC_z	AC_x	GH_y	GH_z	GH_yy	EL_x	PS_y
       0.0              -40.79          31.82          48.55          67.33          8.887         -10.51         -113.8          63.54          147.9          95.33           22.3
   0.04211              -40.79          31.82          48.55          67.32          8.885          -10.5         -113.8          63.54          147.9          95.32          22.32
   0.08421              -40.79          31.82          48.55          67.32          8.882          -10.5         -113.8          63.54          147.8          95.31          22.34
    0.1263              -40.79          31.82          48.54          67.31          8.879          -10.5         -113.8          63.55          147.8           95.3          22.36
    0.1684              -40.79          31.82          48.54          67.31          8.876          -10.5         -113.8          63.55          147.7          95.29          22.39
    0.2105               -40.8          31.82          48.53           67.3          8.873          -10.5         -113.8          63.55          147.7          95.28          22.41
    0.2526               -40.8          31.82          48.53          67.29           8.87         -10.49         -113.8          63.56          147.6          95.27          22.44
    0.2947               -40.8          31.82          48.53          67.28          8.867         -10.49         -113.8          63.56          147.5          95.26          22.47
    0.3368               -40.8          31.82          48.52          67.28          8.863         -10.49         -113.7          63.57          147.5          95.25           22.5
    0.3789              -40.81          31.82          48.51          67.27          8.859         -10.48         -113.7          63.57          147.4          95.24          22.53
    0.4211              -40.81          31.82          48.51          67.26          8.854         -10.48         -113.7          63.58          147.3          95.22          22.57
    0.4632              -40.81          31.82           48.5          67.25           8.85         -10.48         -113.7          63.59          147.2          95.21           22.6
    0.5053              -40.82          31.82           48.5          67.24          8.845         -10.47         -113.7          63.59          147.1          95.19          22.64
    0.5474              -40.82          31.82          48.49          67.23          8.839         -10.47         -113.7           63.6          147.0          95.17          22.69
    0.5895              -40.82          31.82          48.48          67.21          8.834         -10.46         -113.7          63.61          146.9          95.15          22.74
    0.6316              -40.83          31.82          48.47           67.2          8.827         -10.46         -113.7          63.62          146.8          95.13          22.79
    0.6737              -40.83          31.82          48.46          67.19           8.82         -10.45         -113.7          63.63          146.7          95.11          22.84
    0.7158              -40.84          31.82          48.45          67.17          8.813         -10.45         -113.7          63.64          146.5          95.08          22.91
    0.7579              -40.84          31.82          48.44          67.15          8.805         -10.44         -113.7          63.65          146.4          95.06          22.97
       0.8              -40.85          31.82          48.43          67.13          8.796         -10.43         -113.7          63.66          146.2          95.03          23.04
    0.8421              -40.86          31.82          48.42          67.11          8.786         -10.43         -113.7          63.67          146.0          94.99          23.13
    0.8842              -40.86          31.82           48.4          67.09          8.775         -10.42         -113.7          63.69          145.8          94.96          23.21
    0.9263              -40.87          31.82          48.39          67.06          8.763         -10.41         -113.7           63.7          145.6          94.92          23.31
    0.9684              -40.88          31.82          48.37          67.03          8.749          -10.4         -113.7          63.72          145.4          94.87          23.42
     1.011              -40.89          31.81          48.35           67.0          8.735         -10.39         -113.7          63.74          145.1          94.83          23.54
     1.053               -40.9          31.81          48.33          66.97          8.718         -10.37         -113.7          63.77          144.8          94.77          23.67
     1.095              -40.92          31.81          48.31          66.93            8.7         -10.36         -113.7          63.79          144.5          94.71          23.82
     1.137              -40.93          31.81          48.28          66.88          8.679         -10.34         -113.7          63.82          144.1          94.64          23.99
     1.179              -40.95          31.81          48.25          66.83          8.655         -10.32         -113.7          63.85          143.7          94.56          24.18
     1.221              -40.96          31.81          48.21          66.78          8.629          -10.3         -113.7          63.89          143.2          94.47           24.4
     1.263              -40.99          31.81          48.17          66.71          8.598         -10.28         -113.7          63.93          142.6          94.37          24.65
     1.305              -41.01          31.81          48.13          66.64          8.563         -10.25         -113.7          63.98          142.0          94.26          24.93
